<svg width="43" height="11" viewBox="0 0 43 11" fill="none" xmlns="http://www.w3.org/2000/svg">
<path d="M3.62206 9.192C3.00606 9.192 2.46606 9.068 2.00206 8.82C1.54606 8.572 1.18206 8.228 0.910063 7.788C0.638063 7.34 0.478063 6.82 0.430063 6.228L1.72606 6.144C1.78206 6.552 1.89406 6.896 2.06206 7.176C2.23006 7.456 2.45006 7.668 2.72206 7.812C2.99406 7.948 3.31006 8.016 3.67006 8.016C4.02206 8.016 4.31806 7.972 4.55806 7.884C4.79806 7.788 4.98206 7.652 5.11006 7.476C5.23806 7.3 5.30206 7.088 5.30206 6.84C5.30206 6.584 5.24206 6.36 5.12206 6.168C5.00206 5.976 4.78606 5.8 4.47406 5.64C4.16206 5.48 3.70606 5.316 3.10606 5.148C2.52206 4.988 2.04606 4.808 1.67806 4.608C1.31006 4.408 1.04206 4.16 0.874063 3.864C0.706063 3.568 0.622063 3.2 0.622063 2.76C0.622063 2.272 0.734063 1.844 0.958063 1.476C1.19006 1.1 1.51806 0.808 1.94206 0.599999C2.37406 0.392 2.89006 0.288 3.49006 0.288C4.08206 0.288 4.58606 0.404 5.00206 0.636C5.42606 0.868 5.75806 1.192 5.99806 1.608C6.24606 2.016 6.39806 2.496 6.45406 3.048L5.15806 3.12C5.11806 2.792 5.02606 2.504 4.88206 2.256C4.74606 2.008 4.55806 1.816 4.31806 1.68C4.07806 1.536 3.79006 1.464 3.45406 1.464C2.98206 1.464 2.60606 1.58 2.32606 1.812C2.05406 2.036 1.91806 2.332 1.91806 2.7C1.91806 2.948 1.97406 3.152 2.08606 3.312C2.19806 3.472 2.39406 3.616 2.67406 3.744C2.95406 3.872 3.34606 4.004 3.85006 4.14C4.53006 4.324 5.07006 4.536 5.47006 4.776C5.87006 5.016 6.15806 5.304 6.33406 5.64C6.51006 5.976 6.59806 6.376 6.59806 6.84C6.59806 7.304 6.47406 7.716 6.22606 8.076C5.97806 8.428 5.63006 8.704 5.18206 8.904C4.74206 9.096 4.22206 9.192 3.62206 9.192ZM8.66938 10.8V9.78H9.44938C9.67338 9.78 9.83738 9.744 9.94138 9.672C10.0534 9.608 10.1374 9.5 10.1934 9.348L10.4094 8.784H10.0014L7.67338 2.616H8.98138L10.7934 7.644L12.4854 2.616H13.7814L11.2374 9.72C11.1094 10.104 10.9094 10.38 10.6374 10.548C10.3734 10.716 10.0174 10.8 9.56938 10.8H8.66938ZM15.2647 9V2.616H16.3807L16.4167 4.284L16.2847 4.188C16.3647 3.796 16.5047 3.476 16.7047 3.228C16.9127 2.972 17.1647 2.784 17.4607 2.664C17.7567 2.536 18.0727 2.472 18.4087 2.472C18.8887 2.472 19.2847 2.58 19.5967 2.796C19.9087 3.004 20.1447 3.292 20.3047 3.66C20.4647 4.02 20.5447 4.428 20.5447 4.884V9H19.3327V5.196C19.3327 4.644 19.2247 4.228 19.0087 3.948C18.8007 3.668 18.4847 3.528 18.0607 3.528C17.7647 3.528 17.4967 3.592 17.2567 3.72C17.0247 3.848 16.8367 4.04 16.6927 4.296C16.5487 4.544 16.4767 4.852 16.4767 5.22V9H15.2647ZM25.1 9.144C24.508 9.144 23.988 9.008 23.54 8.736C23.1 8.464 22.756 8.076 22.508 7.572C22.268 7.068 22.148 6.48 22.148 5.808C22.148 5.128 22.268 4.54 22.508 4.044C22.756 3.54 23.1 3.152 23.54 2.88C23.988 2.608 24.508 2.472 25.1 2.472C25.692 2.472 26.208 2.608 26.648 2.88C27.096 3.152 27.44 3.54 27.68 4.044C27.928 4.54 28.052 5.128 28.052 5.808C28.052 6.48 27.928 7.068 27.68 7.572C27.44 8.076 27.096 8.464 26.648 8.736C26.208 9.008 25.692 9.144 25.1 9.144ZM25.1 8.028C25.636 8.028 26.048 7.832 26.336 7.44C26.632 7.048 26.78 6.504 26.78 5.808C26.78 5.112 26.632 4.568 26.336 4.176C26.048 3.784 25.636 3.588 25.1 3.588C24.564 3.588 24.148 3.784 23.852 4.176C23.564 4.568 23.42 5.112 23.42 5.808C23.42 6.504 23.564 7.048 23.852 7.44C24.148 7.832 24.564 8.028 25.1 8.028ZM31.3233 9V2.616H32.2833L32.3913 4.248L32.2833 4.236C32.3633 3.684 32.5353 3.276 32.7993 3.012C33.0633 2.748 33.4273 2.616 33.8913 2.616H35.2473V3.672H33.9393C33.6353 3.672 33.3793 3.732 33.1713 3.852C32.9633 3.964 32.8033 4.136 32.6913 4.368C32.5873 4.592 32.5353 4.872 32.5353 5.208V9H31.3233ZM29.7033 9V7.98H34.5273V9H29.7033ZM29.7033 3.636V2.616H32.0073V3.636H29.7033ZM38.6266 9.144C38.2266 9.144 37.8666 9.072 37.5466 8.928C37.2266 8.784 36.9706 8.58 36.7786 8.316C36.5946 8.052 36.5026 7.744 36.5026 7.392C36.5026 6.848 36.6666 6.424 36.9946 6.12C37.3306 5.816 37.8346 5.6 38.5066 5.472L40.5706 5.04C40.5706 4.544 40.4626 4.172 40.2466 3.924C40.0306 3.676 39.7066 3.552 39.2746 3.552C38.8746 3.552 38.5626 3.644 38.3386 3.828C38.1146 4.012 37.9626 4.268 37.8826 4.596L36.6106 4.512C36.7306 3.904 37.0226 3.412 37.4866 3.036C37.9506 2.66 38.5466 2.472 39.2746 2.472C40.0906 2.472 40.7106 2.704 41.1346 3.168C41.5666 3.632 41.7826 4.272 41.7826 5.088V7.608C41.7826 7.752 41.8146 7.856 41.8786 7.92C41.9426 7.976 42.0346 8.004 42.1546 8.004H42.5146V9C42.4666 9.008 42.3866 9.016 42.2746 9.024C42.1706 9.032 42.0666 9.036 41.9626 9.036C41.6746 9.036 41.4306 8.988 41.2306 8.892C41.0306 8.796 40.8786 8.648 40.7746 8.448C40.6786 8.24 40.6226 7.98 40.6066 7.668H40.7986C40.7506 7.948 40.6266 8.2 40.4266 8.424C40.2266 8.648 39.9706 8.824 39.6586 8.952C39.3466 9.08 39.0026 9.144 38.6266 9.144ZM38.8066 8.148C39.1906 8.148 39.5146 8.08 39.7786 7.944C40.0426 7.808 40.2386 7.616 40.3666 7.368C40.5026 7.12 40.5706 6.828 40.5706 6.492V6L38.7946 6.36C38.4106 6.432 38.1426 6.544 37.9906 6.696C37.8386 6.848 37.7626 7.048 37.7626 7.296C37.7626 7.56 37.8546 7.768 38.0386 7.92C38.2226 8.072 38.4786 8.148 38.8066 8.148Z" fill="black"/>
</svg>
